<svg width="220" height="131.741" xmlns="http://www.w3.org/2000/svg" viewBox="85.98753662109377 14.300000000000004 328.02492675781247 121.39999999999999" style="background: rgba(0, 0, 0, 0);" preserveAspectRatio="xMidYMid"><defs><filter id="editing-vr"><feFlood flood-color="#f00" flood-opacity="0.7" result="c1"></feFlood><feFlood flood-color="#00f" flood-opacity="0.7" result="c3"></feFlood><feComposite operator="in" in="c1" in2="SourceAlpha" result="text-c1"></feComposite><feComposite operator="in" in="c3" in2="SourceAlpha" result="text-c3"></feComposite><feOffset in="text-c1" dx="5" dy="-1" result="text1"></feOffset><feOffset in="text-c3" dx="-5" dy="1" result="text3"></feOffset><feBlend in="SourceGraphic" in2="text1" mode="multiply" result="text4"></feBlend><feBlend in="text4" in2="text3" mode="multiply"></feBlend></filter></defs><g filter="url(#editing-vr)"><g transform="translate(137.86997711658478, 103.15999984741211)"><path d="M26.05-29.57L26.05-29.57L26.05-29.57Q27.01-31.49 27.01-33.28L27.01-33.28L27.01-33.28Q27.01-35.07 26.82-36.06L26.82-36.06L26.82-36.06Q26.62-37.06 26.18-37.82L26.18-37.82L26.18-37.82Q25.22-39.49 23.30-39.49L23.30-39.49L23.30-39.49Q20.93-39.49 19.01-37.76L19.01-37.76L19.01-37.76Q16.96-35.97 16.96-33.15L16.96-33.15L16.96-33.15Q16.96-31.36 18.21-29.98L18.21-29.98L18.21-29.98Q19.46-28.61 21.38-27.33L21.38-27.33L21.38-27.33Q23.30-26.05 25.47-24.77L25.47-24.77L25.47-24.77Q27.65-23.49 29.57-21.95L29.57-21.95L29.57-21.95Q33.98-18.43 33.98-13.70L33.98-13.70L33.98-13.70Q33.98-10.50 32.29-7.78L32.29-7.78L32.29-7.78Q30.59-5.06 27.78-3.07L27.78-3.07L27.78-3.07Q21.63 1.28 13.50 1.28L13.50 1.28L13.50 1.28Q6.91 1.28 3.52-0.86L3.52-0.86L3.52-0.86Q0.13-3.01 0.13-6.27L0.13-6.27L0.13-6.27Q0.13-12.10 4.67-13.57L4.67-13.57L4.67-13.57Q5.95-14.02 7.90-14.02L7.90-14.02L7.90-14.02Q9.86-14.02 12.10-13.18L12.10-13.18L12.10-13.18Q11.07-10.56 11.07-8.19L11.07-8.19L11.07-8.19Q11.07-3.07 14.72-3.07L14.72-3.07L14.72-3.07Q17.09-3.07 19.04-4.80L19.04-4.80L19.04-4.80Q20.99-6.53 20.99-8.48L20.99-8.48L20.99-8.48Q20.99-10.43 19.74-11.84L19.74-11.84L19.74-11.84Q18.50-13.25 16.64-14.37L16.64-14.37L16.64-14.37Q14.78-15.49 12.64-16.58L12.64-16.58L12.64-16.58Q10.50-17.66 8.64-19.20L8.64-19.20L8.64-19.20Q4.29-22.72 4.29-28.35L4.29-28.35L4.29-28.35Q4.29-32 6.08-34.85L6.08-34.85L6.08-34.85Q7.87-37.70 10.75-39.62L10.75-39.62L10.75-39.62Q16.51-43.52 23.58-43.52L23.58-43.52L23.58-43.52Q30.66-43.52 34.08-41.41L34.08-41.41L34.08-41.41Q37.50-39.30 37.50-35.71L37.50-35.71L37.50-35.71Q37.50-32.58 35.07-30.59L35.07-30.59L35.07-30.59Q32.96-28.93 30.40-28.93L30.40-28.93L30.40-28.93Q27.84-28.93 26.05-29.57ZM52.80 1.28L52.80 1.28L52.80 1.28Q38.72 1.28 38.72-11.97L38.72-11.97L38.72-11.97Q38.72-21.38 43.90-27.46L43.90-27.46L43.90-27.46Q49.41-33.92 58.94-33.92L58.94-33.92L58.94-33.92Q65.86-33.92 69.38-30.72L69.38-30.72L69.38-30.72Q72.90-27.52 72.90-20.80L72.90-20.80L72.90-20.80Q72.90-10.56 67.39-4.61L67.39-4.61L67.39-4.61Q62.02 1.28 52.80 1.28ZM54.46-26.56L54.46-26.56L54.46-26.56Q53.70-24.83 53.09-22.24L53.09-22.24L53.09-22.24Q52.48-19.65 51.71-15.55L51.71-15.55L51.71-15.55Q50.94-11.46 50.94-6.40L50.94-6.40L50.94-6.40Q50.94-4.74 51.49-3.65L51.49-3.65L51.49-3.65Q52.03-2.56 53.50-2.56L53.50-2.56L53.50-2.56Q54.98-2.56 55.90-3.26L55.90-3.26L55.90-3.26Q56.83-3.97 57.54-5.63L57.54-5.63L57.54-5.63Q58.82-8.58 59.84-14.05L59.84-14.05L59.84-14.05Q60.86-19.52 60.96-21.89L60.96-21.89L60.96-21.89Q61.06-24.26 61.06-26.02L61.06-26.02L61.06-26.02Q61.06-27.78 60.54-28.93L60.54-28.93L60.54-28.93Q60.03-30.08 58.59-30.08L58.59-30.08L58.59-30.08Q57.15-30.08 56.19-29.18L56.19-29.18L56.19-29.18Q55.23-28.29 54.46-26.56ZM103.74 1.28L103.74 1.28L103.74 1.28Q96 1.28 96-4.74L96-4.74L96-4.74Q96.06-6.40 96.58-9.22L96.58-9.22L97.73-15.10L97.73-15.10Q99.46-23.42 99.46-25.28L99.46-25.28L99.46-25.28Q99.46-28.99 97.28-28.99L97.28-28.99L97.28-28.99Q93.63-28.99 91.71-19.46L91.71-19.46L87.94 0L75.07 1.28L81.73-32.70L92.22-33.92L91.20-27.65L91.20-27.65Q94.21-33.92 103.42-33.92L103.42-33.92L103.42-33.92Q107.90-33.92 109.79-32.03L109.79-32.03L109.79-32.03Q111.68-30.14 111.68-25.92L111.68-25.92L111.68-25.92Q111.68-21.95 109.63-12.67L109.63-12.67L109.63-12.67Q108.67-8.51 108.67-6.94L108.67-6.94L108.67-6.94Q108.67-5.38 109.54-4.48L109.54-4.48L109.54-4.48Q110.40-3.58 111.68-3.46L111.68-3.46L111.68-3.46Q111.04-1.28 108.83 0L108.83 0L108.83 0Q106.62 1.28 103.74 1.28ZM121.34-26.75L121.34-26.75L121.34-26.75Q123.52-29.82 126.82-31.87L126.82-31.87L126.82-31.87Q130.11-33.92 134.14-33.92L134.14-33.92L134.14-33.92Q138.18-33.92 140.10-32.64L140.10-32.64L152.64-33.92L148.29-9.34L148.29-9.34Q146.05 3.20 141.31 8.13L141.31 8.13L141.31 8.13Q136.77 12.80 127.94 12.80L127.94 12.80L127.94 12.80Q121.22 12.80 117.38 10.69L117.38 10.69L117.38 10.69Q113.54 8.58 113.54 5.06L113.54 5.06L113.54 5.06Q113.54 2.43 115.52 0.93L115.52 0.93L115.52 0.93Q117.50-0.58 120.58-0.58L120.58-0.58L120.58-0.58Q123.26-0.58 125.31 0.64L125.31 0.64L125.31 0.64Q126.53 1.28 127.10 2.18L127.10 2.18L127.10 2.18Q125.63 3.46 125.63 5.57L125.63 5.57L125.63 5.57Q125.63 8.32 128.19 8.32L128.19 8.32L128.19 8.32Q132.48 8.32 134.91-1.79L134.91-1.79L134.91-1.79Q135.62-4.54 136.19-7.30L136.19-7.30L136.19-7.30Q133.31-3.78 126.78-3.78L126.78-3.78L126.78-3.78Q122.24-3.78 119.62-5.95L119.62-5.95L119.62-5.95Q116.99-8.13 116.99-13.25L116.99-13.25L116.99-13.25Q116.99-16.45 118.08-20.06L118.08-20.06L118.08-20.06Q119.17-23.68 121.34-26.75ZM129.66-13.06L129.66-13.06L129.66-13.06Q129.66-8.70 131.90-8.70L131.90-8.70L131.90-8.70Q133.44-8.70 134.91-10.37L134.91-10.37L134.91-10.37Q136.06-11.71 136.51-13.70L136.51-13.70L139.78-30.14L139.78-30.14Q139.46-30.21 139.14-30.34L139.14-30.34L139.14-30.34Q138.50-30.59 137.66-30.59L137.66-30.59L137.66-30.59Q133.76-30.59 131.46-24.19L131.46-24.19L131.46-24.19Q129.66-19.20 129.66-13.06ZM167.46 0.64L167.46 0.64L167.46 0.64Q164.42 0 162.85-0.29L162.85-0.29L162.85-0.29Q161.28-0.58 159.46-0.58L159.46-0.58L159.46-0.58Q157.63-0.58 155.84 0.06L155.84 0.06L155.84 0.06Q154.88-0.51 154.27-1.66L154.27-1.66L154.27-1.66Q153.66-2.82 153.66-4.61L153.66-4.61L153.66-4.61Q153.66-8.38 157.50-11.26L157.50-11.26L173.76-22.98L173.76-22.98Q169.22-24.26 165.09-24.26L165.09-24.26L165.09-24.26Q160.96-24.26 159.49-21.44L159.49-21.44L159.49-21.44Q157.31-24 157.31-28.03L157.31-28.03L157.31-28.03Q157.31-30.72 159.26-32.48L159.26-32.48L159.26-32.48Q161.22-34.24 165.31-34.24L165.31-34.24L165.31-34.24Q167.62-34.24 169.70-33.95L169.70-33.95L169.70-33.95Q171.78-33.66 173.63-33.41L173.63-33.41L177.09-32.90L177.09-32.90Q178.75-32.64 180.45-32.64L180.45-32.64L180.45-32.64Q182.14-32.64 183.42-33.34L183.42-33.34L183.42-33.34Q185.09-31.81 185.09-29.70L185.09-29.70L185.09-29.70Q185.09-26.37 180.99-22.91L180.99-22.91L164.80-10.82L164.80-10.82Q169.79-9.34 172.35-9.34L172.35-9.34L172.35-9.34Q177.73-9.34 180.03-11.90L180.03-11.90L180.03-11.90Q181.82-9.86 181.82-6.30L181.82-6.30L181.82-6.30Q181.82-2.75 179.52-0.74L179.52-0.74L179.52-0.74Q177.22 1.28 173.06 1.28L173.06 1.28L173.06 1.28Q170.50 1.28 167.46 0.64ZM190.18-1.92L190.18-1.92L190.18-1.92Q188.67-3.58 188-6.21L188-6.21L188-6.21Q187.33-8.83 187.33-13.12L187.33-13.12L187.33-13.12Q187.33-17.41 188.80-21.31L188.80-21.31L188.80-21.31Q190.27-25.22 192.96-28.03L192.96-28.03L192.96-28.03Q198.46-33.92 207.55-33.92L207.55-33.92L207.55-33.92Q210.82-33.92 213.18-32.83L213.18-32.83L224.13-33.92L219.39-8.96L219.39-8.96Q219.20-8.19 219.20-6.78L219.20-6.78L219.20-6.78Q219.20-5.38 220.06-4.48L220.06-4.48L220.06-4.48Q220.93-3.58 222.21-3.46L222.21-3.46L222.21-3.46Q221.57-1.28 219.23 0L219.23 0L219.23 0Q216.90 1.28 214.27 1.28L214.27 1.28L214.27 1.28Q211.65 1.28 209.89 0.29L209.89 0.29L209.89 0.29Q208.13-0.70 207.62-2.37L207.62-2.37L207.62-2.37Q206.59-0.77 204.42 0.26L204.42 0.26L204.42 0.26Q202.24 1.28 199.33 1.28L199.33 1.28L199.33 1.28Q196.42 1.28 194.05 0.51L194.05 0.51L194.05 0.51Q191.68-0.26 190.18-1.92ZM203.68-27.90L203.68-27.90L203.68-27.90Q202.94-26.75 202.30-24.80L202.30-24.80L202.30-24.80Q201.66-22.85 200.61-17.63L200.61-17.63L200.61-17.63Q199.55-12.42 199.55-8.70L199.55-8.70L199.55-8.70Q199.55-4.99 200.13-3.90L200.13-3.90L200.13-3.90Q200.70-2.82 201.73-2.82L201.73-2.82L201.73-2.82Q203.78-2.82 205.28-4.77L205.28-4.77L205.28-4.77Q206.78-6.72 207.36-10.18L207.36-10.18L210.75-28.93L210.75-28.93Q209.41-30.08 207.84-30.08L207.84-30.08L207.84-30.08Q206.27-30.08 205.34-29.57L205.34-29.57L205.34-29.57Q204.42-29.06 203.68-27.90Z" fill="#444"></path></g></g><style>text {
  font-size: 64px;
  font-family: Arial Black;
  dominant-baseline: central;
  text-anchor: middle;
}</style></svg>