<svg width="220" height="131.741" xmlns="http://www.w3.org/2000/svg" viewBox="81.009375 -1.2999999999999972 337.98125 152.6" style="background:#051103" preserveAspectRatio="xMidYMid"><defs><linearGradient id="editing-glowing-gradient" x1="0.8146601955249185" x2="0.18533980447508147" y1="0.8885729807284856" y2="0.11142701927151444"><stop offset="0" stop-color="#67ff43"></stop><stop offset="1" stop-color="#90ffff"></stop></linearGradient><filter id="editing-glowing" x="-100%" y="-100%" width="300%" height="300%"><feGaussianBlur in="SourceGraphic" result="blur" stdDeviation="30"></feGaussianBlur><feMerge><feMergeNode in="blur"></feMergeNode><feMergeNode in="SourceGraphic"></feMergeNode></feMerge></filter></defs><g filter="url(#editing-glowing)"><g transform="translate(131.7849736213684, 114.04000091552734)"><path d="M13.10-20.19L13.10-20.19L13.10-20.19Q12.61-16.22 12.61-13.88L12.61-13.88L12.61-13.88Q12.61-11.54 13.18-9.56L13.18-9.56L13.18-9.56Q13.75-7.58 14.82-6.13L14.82-6.13L14.82-6.13Q17.10-3.05 20.60-3.05L20.60-3.05L20.60-3.05Q27.31-3.05 27.31-10.44L27.31-10.44L27.31-10.44Q27.31-16.38 20.41-23.04L20.41-23.04L16.45-26.89L16.45-26.89Q11.24-31.92 9.33-34.96L9.33-34.96L9.33-34.96Q5.56-40.98 5.56-46.92L5.56-46.92L5.56-46.92Q5.56-51.76 8.68-55.03L8.68-55.03L8.68-55.03Q12.45-59.03 19.54-59.03L19.54-59.03L19.54-59.03Q22.32-59.03 23.73-58.77L23.73-58.77L23.73-58.77Q26.36-58.27 27.23-58.27L27.23-58.27L27.23-58.27Q29.44-58.27 30.66-59.64L30.66-59.64L30.66-59.64Q31.12-60.14 31.65-60.94L31.65-60.94L31.65-60.94Q34.43-59.38 34.43-49.47L34.43-49.47L34.43-49.47Q34.43-43.15 33.17-40.14L33.17-40.14L33.17-40.14Q32.75-39.11 32.22-38.85L32.22-38.85L32.22-38.85Q31.61-44.60 28.49-49.13L28.49-49.13L28.49-49.13Q24.83-54.46 20.03-54.46L20.03-54.46L20.03-54.46Q15.92-54.46 14.97-50.69L14.97-50.69L14.97-50.69Q14.70-49.63 14.70-48.05L14.70-48.05L14.70-48.05Q14.70-46.46 15.65-44.45L15.65-44.45L15.65-44.45Q16.61-42.43 18.15-40.43L18.15-40.43L18.15-40.43Q19.69-38.43 21.71-36.41L21.71-36.41L21.71-36.41Q27.80-30.16 29.80-27.96L29.80-27.96L29.80-27.96Q31.80-25.75 33.36-23.38L33.36-23.38L33.36-23.38Q36.79-18.09 36.79-13.14L36.79-13.14L36.79-13.14Q36.79-7.16 32.14-3.24L32.14-3.24L32.14-3.24Q27.35 0.76 19.80 0.76L19.80 0.76L19.80 0.76Q13.56 0.76 9.06-2.36L9.06-2.36L9.06-2.36Q4.11-5.79 4.11-11.43L4.11-11.43L4.11-11.43Q5.60-16.72 10.59-19.20L10.59-19.20L10.59-19.20Q11.92-19.88 13.10-20.19ZM60.29-35.42L60.29-35.42Q56.86-35.42 55.36-31.99L55.36-31.99L55.36-31.99Q53.85-28.56 53.85-20.45L53.85-20.45L53.85-20.45Q53.85-3.05 60.29-3.05L60.29-3.05L60.29-3.05Q63.72-3.05 65.22-7.69L65.22-7.69L65.22-7.69Q66.73-12.34 66.73-20.45L66.73-20.45L66.73-20.45Q66.73-28.56 65.22-31.99L65.22-31.99L65.22-31.99Q63.72-35.42 60.29-35.42L60.29-35.42ZM44.26-21.90L44.26-21.90Q44.26-39.23 60.29-39.23L60.29-39.23L60.29-39.23Q76.32-39.23 76.32-21.90L76.32-21.90L76.32-21.90Q76.32-11.39 71.91-5.26L71.91-5.26L71.91-5.26Q67.60 0.76 60.29 0.76L60.29 0.76L60.29 0.76Q52.98 0.76 48.67-5.26L48.67-5.26L48.67-5.26Q44.26-11.39 44.26-21.90L44.26-21.90ZM96.81 0L85.88 0L85.88 0Q87.64-6.02 87.64-20.68L87.64-20.68L87.64-20.68Q87.64-31.12 85.81-34.92L85.81-34.92L85.81-34.92Q85.35-35.88 84.78-36.71L84.78-36.71L83.52-38.47L96.74-38.47L96.74-38.47Q96.17-36.56 95.98-34.89L95.98-34.89L95.67-32.14L95.67-32.14Q100.28-39.23 107.40-39.23L107.40-39.23L107.40-39.23Q112.01-39.23 114.60-35.65L114.60-35.65L114.60-35.65Q117.11-32.14 117.11-26.17L117.11-26.17L117.11-22.09L117.11-22.09Q117.11-11.62 117.30-9.29L117.30-9.29L117.30-9.29Q117.50-6.97 117.61-5.75L117.61-5.75L117.61-5.75Q117.72-4.53 117.88-3.58L117.88-3.58L117.88-3.58Q118.14-1.79 118.68 0L118.68 0L107.52 0L107.52 0Q109.27-6.02 109.27-20.68L109.27-20.68L109.27-20.68Q109.27-26.55 108.53-28.72L108.53-28.72L108.53-28.72Q107.78-30.89 106.75-31.82L106.75-31.82L106.75-31.82Q105.73-32.75 104.05-32.75L104.05-32.75L104.05-32.75Q100.97-32.75 98.45-30.32L98.45-30.32L98.45-30.32Q96.28-28.22 95.14-24.98L95.14-24.98L95.14-24.98Q95.06-23.96 95.06-22.85L95.06-22.85L95.06-20.68L95.06-20.68Q95.06-6.02 96.81 0L96.81 0ZM147.81-0.91L147.81-0.91L147.81-0.91Q144.12 0.76 140.54 0.76L140.54 0.76L140.54 0.76Q136.96 0.76 134.60-0.15L134.60-0.15L134.60-0.15Q132.23-1.07 130.56-2.82L130.56-2.82L130.56-2.82Q127.05-6.47 127.05-12.91L127.05-12.91L127.05-12.91Q127.05-25.33 134.18-32.26L134.18-32.26L134.18-32.26Q140.54-38.47 149.49-38.47L149.49-38.47L158.17-38.47L158.17-38.47Q157.10-34.77 156.95-31.38L156.95-31.38L156.95-31.38Q156.80-27.99 156.74-25.84L156.74-25.84L156.74-25.84Q156.69-23.69 156.65-21.48L156.65-21.48L156.65-21.48Q156.57-17.06 156.57-12.45L156.57-12.45L156.57-12.45Q156.57-7.85 155.85-3.52L155.85-3.52L155.85-3.52Q155.12 0.80 153.92 4.04L153.92 4.04L153.92 4.04Q152.72 7.27 151.18 9.56L151.18 9.56L151.18 9.56Q149.64 11.84 147.96 13.41L147.96 13.41L147.96 13.41Q145.22 15.96 141.60 17.14L141.60 17.14L141.60 17.14Q140.84 16.83 140.14 16.03L140.14 16.03L140.14 16.03Q139.43 15.23 139.28 14.47L139.28 14.47L139.28 14.47Q143.62 12.72 146.17 5.75L146.17 5.75L146.17 5.75Q147.16 3.05 147.81-0.91ZM148.65-12.72L148.65-12.72L148.76-24.15L148.76-24.15Q148.76-31.04 148.27-34.58L148.27-34.58L148.27-34.58Q142.86-33.52 139.74-28.18L139.74-28.18L139.74-28.18Q136.58-22.74 136.58-14.43L136.58-14.43L136.58-14.43Q136.58-9.29 137.36-7.16L137.36-7.16L137.36-7.16Q138.14-5.03 139.22-4.04L139.22-4.04L139.22-4.04Q140.31-3.05 141.85-3.05L141.85-3.05L141.85-3.05Q143.39-3.05 144.57-3.66L144.57-3.66L144.57-3.66Q145.75-4.27 146.67-5.48L146.67-5.48L146.67-5.48Q148.65-8.11 148.65-12.72ZM191.76-12.80L191.76-12.80L191.76-12.80Q192.79-10.66 192.79-8.42L192.79-8.42L192.79-8.42Q192.79-6.17 192.58-4.89L192.58-4.89L192.58-4.89Q192.37-3.62 191.95-2.59L191.95-2.59L191.95-2.59Q191.04-0.30 189.44 0L189.44 0L162.63 0L162.63 0Q165.22-4.08 166.05-5.52L166.05-5.52L166.05-5.52Q178.47-28.22 179.35-29.97L179.35-29.97L179.35-29.97Q180.22-31.73 180.22-32.83L180.22-32.83L180.22-32.83Q180.22-35.04 176.43-35.04L176.43-35.04L176.43-35.04Q172.64-35.04 170.02-32.11L170.02-32.11L170.02-32.11Q167.39-29.17 165.56-23.61L165.56-23.61L165.56-23.61Q164.49-26.05 164.49-28.70L164.49-28.70L164.49-28.70Q164.49-31.34 164.72-32.87L164.72-32.87L164.72-32.87Q164.95-34.39 165.41-35.61L165.41-35.61L165.41-35.61Q166.47-38.31 168.34-38.47L168.34-38.47L193.02-38.47L193.02-38.47Q179.42-13.67 177.88-10.44L177.88-10.44L177.88-10.44Q176.34-7.20 176.34-6.13L176.34-6.13L176.34-6.13Q176.34-3.81 180.18-3.81L180.18-3.81L180.18-3.81Q184.49-3.81 187.12-5.98L187.12-5.98L187.12-5.98Q189.44-7.88 191.76-12.80ZM227.60-20.34L227.60-20.34L227.49-13.03L227.49-13.03Q227.49-6.21 228.74-3.73L228.74-3.73L228.74-3.73Q229.51-2.25 230.53-1.45L230.53-1.45L232.32 0L221.28 0L220.10-4.42L220.10-4.42Q215.79 0.76 207.83 0.76L207.83 0.76L207.83 0.76Q203.30 0.76 200.52-2.29L200.52-2.29L200.52-2.29Q198.08-5.03 198.08-8.76L198.08-8.76L198.08-8.76Q198.08-12.49 199.86-15.27L199.86-15.27L199.86-15.27Q201.63-18.05 204.52-19.88L204.52-19.88L204.52-19.88Q210.23-23.42 218.88-23.58L218.88-23.58L218.88-23.99L218.88-23.99Q218.88-33.25 216.02-34.85L216.02-34.85L216.02-34.85Q215.00-35.42 213.38-35.42L213.38-35.42L213.38-35.42Q211.76-35.42 210.16-34.35L210.16-34.35L210.16-34.35Q208.56-33.29 207.26-31.61L207.26-31.61L207.26-31.61Q204.67-28.22 203.57-23.61L203.57-23.61L203.57-23.61Q200.18-25.63 200.18-31.34L200.18-31.34L200.18-31.34Q200.18-33.67 200.79-36.56L200.79-36.56L200.79-36.56Q202.24-36.56 203.53-36.98L203.53-36.98L206.46-37.90L206.46-37.90Q210.77-39.23 214.88-39.23L214.88-39.23L214.88-39.23Q218.99-39.23 221.45-38.01L221.45-38.01L221.45-38.01Q223.91-36.79 225.28-34.39L225.28-34.39L225.28-34.39Q227.60-30.32 227.60-20.34ZM206.31-8.00L206.31-8.00Q206.31-5.64 207.40-4.34L207.40-4.34L207.40-4.34Q208.48-3.05 210.12-3.05L210.12-3.05L210.12-3.05Q211.76-3.05 213.28-3.90L213.28-3.90L213.28-3.90Q214.80-4.76 216.02-6.25L216.02-6.25L216.02-6.25Q218.88-9.64 218.88-14.21L218.88-14.21L218.88-19.84L218.88-19.84Q213.55-19.35 210.08-16.30L210.08-16.30L210.08-16.30Q206.31-13.03 206.31-8.00L206.31-8.00Z" fill="url(#editing-glowing-gradient)"></path></g></g><style>text {
  font-size: 64px;
  font-family: Arial Black;
  dominant-baseline: central;
  text-anchor: middle;
}</style></svg>