<svg width="438.74375px" height="140px" xmlns="http://www.w3.org/2000/svg" viewBox="30.62812500000001 -4 438.74375 158" style="background: rgba(0, 0, 0, 0);" preserveAspectRatio="xMidYMid"><defs><linearGradient id="editing-sticker-gradient" x1="0.20768898056442947" y1="0.5674853163031596" x2="0.7923110194355705" y2="0.43251468369684043"><stop offset="0" stop-color="#fd9"></stop><stop offset="1" stop-color="#9df"></stop></linearGradient><filter id="editing-sticker" x="-100%" y="-100%" width="300%" height="300%"><feMorphology operator="erode" radius="1" in="SourceAlpha" result="alpha-erode"></feMorphology><feConvolveMatrix order="3,3" divisor="1" kernelMatrix="0 1 0 1 1 1 0 1 0" in="alpha-erode" result="alpha-round"></feConvolveMatrix><feMorphology operator="dilate" radius="3.5" in="alpha-round" result="dilate-shadow"></feMorphology><feGaussianBlur in="dilate-shadow" stdDeviation="1.5" result="shadow"></feGaussianBlur><feFlood flood-color="#fff" result="flood-sticker"></feFlood><feComposite operator="in" in="flood-sticker" in2="alpha-round" result="comp-sticker"></feComposite><feMorphology operator="dilate" radius="3" in="comp-sticker" result="morph-sticker"></feMorphology><feConvolveMatrix order="3,3" divisor="1" kernelMatrix="0 1 0 1 1 1 0 1 0" in="morph-sticker" result="sticker"></feConvolveMatrix><feMerge><feMergeNode in="shadow"></feMergeNode><feMergeNode in="sticker"></feMergeNode><feMergeNode in="SourceGraphic"></feMergeNode></feMerge></filter></defs><g filter="url(#editing-sticker)"><g transform="translate(97.5799770951271, 113.27999877929688)"><path d="M35.41-40.19L35.41-40.19L35.41-40.19Q36.71-42.80 36.71-45.24L36.71-45.24L36.71-45.24Q36.71-47.68 36.45-49.02L36.45-49.02L36.45-49.02Q36.19-50.37 35.58-51.42L35.58-51.42L35.58-51.42Q34.28-53.68 31.67-53.68L31.67-53.68L31.67-53.68Q28.45-53.68 25.84-51.33L25.84-51.33L25.84-51.33Q23.06-48.89 23.06-45.07L23.06-45.07L23.06-45.07Q23.06-42.63 24.75-40.76L24.75-40.76L24.75-40.76Q26.45-38.89 29.06-37.15L29.06-37.15L29.06-37.15Q31.67-35.41 34.63-33.67L34.63-33.67L34.63-33.67Q37.58-31.93 40.19-29.84L40.19-29.84L40.19-29.84Q46.20-25.06 46.20-18.62L46.20-18.62L46.20-18.62Q46.20-14.27 43.89-10.57L43.89-10.57L43.89-10.57Q41.59-6.87 37.76-4.18L37.76-4.18L37.76-4.18Q29.41 1.74 18.36 1.74L18.36 1.74L18.36 1.74Q9.40 1.74 4.79-1.17L4.79-1.17L4.79-1.17Q0.17-4.09 0.17-8.53L0.17-8.53L0.17-8.53Q0.17-16.44 6.35-18.44L6.35-18.44L6.35-18.44Q8.09-19.05 10.74-19.05L10.74-19.05L10.74-19.05Q13.40-19.05 16.44-17.92L16.44-17.92L16.44-17.92Q15.05-14.36 15.05-11.14L15.05-11.14L15.05-11.14Q15.05-4.18 20.01-4.18L20.01-4.18L20.01-4.18Q23.23-4.18 25.88-6.53L25.88-6.53L25.88-6.53Q28.54-8.87 28.54-11.53L28.54-11.53L28.54-11.53Q28.54-14.18 26.84-16.10L26.84-16.10L26.84-16.10Q25.14-18.01 22.62-19.53L22.62-19.53L22.62-19.53Q20.10-21.05 17.18-22.53L17.18-22.53L17.18-22.53Q14.27-24.01 11.75-26.10L11.75-26.10L11.75-26.10Q5.83-30.89 5.83-38.54L5.83-38.54L5.83-38.54Q5.83-43.50 8.27-47.37L8.27-47.37L8.27-47.37Q10.70-51.24 14.62-53.85L14.62-53.85L14.62-53.85Q22.45-59.16 32.06-59.16L32.06-59.16L32.06-59.16Q41.67-59.16 46.33-56.29L46.33-56.29L46.33-56.29Q50.98-53.42 50.98-48.55L50.98-48.55L50.98-48.55Q50.98-44.28 47.68-41.59L47.68-41.59L47.68-41.59Q44.81-39.32 41.33-39.32L41.33-39.32L41.33-39.32Q37.85-39.32 35.41-40.19ZM71.78 1.74L71.78 1.74L71.78 1.74Q52.64 1.74 52.64-16.27L52.64-16.27L52.64-16.27Q52.64-29.06 59.68-37.32L59.68-37.32L59.68-37.32Q67.16-46.11 80.13-46.11L80.13-46.11L80.13-46.11Q89.52-46.11 94.31-41.76L94.31-41.76L94.31-41.76Q99.09-37.41 99.09-28.28L99.09-28.28L99.09-28.28Q99.09-14.36 91.61-6.26L91.61-6.26L91.61-6.26Q84.30 1.74 71.78 1.74ZM74.04-36.11L74.04-36.11L74.04-36.11Q72.99-33.76 72.17-30.23L72.17-30.23L72.17-30.23Q71.34-26.71 70.30-21.14L70.30-21.14L70.30-21.14Q69.25-15.57 69.25-8.70L69.25-8.70L69.25-8.70Q69.25-6.44 69.99-4.96L69.99-4.96L69.99-4.96Q70.73-3.48 72.73-3.48L72.73-3.48L72.73-3.48Q74.73-3.48 75.99-4.44L75.99-4.44L75.99-4.44Q77.26-5.39 78.21-7.66L78.21-7.66L78.21-7.66Q79.95-11.66 81.35-19.10L81.35-19.10L81.35-19.10Q82.74-26.54 82.87-29.75L82.87-29.75L82.87-29.75Q83.00-32.97 83.00-35.37L83.00-35.37L83.00-35.37Q83.00-37.76 82.30-39.32L82.30-39.32L82.30-39.32Q81.61-40.89 79.65-40.89L79.65-40.89L79.65-40.89Q77.69-40.89 76.39-39.67L76.39-39.67L76.39-39.67Q75.08-38.45 74.04-36.11ZM141.03 1.74L141.03 1.74L141.03 1.74Q130.50 1.74 130.50-6.44L130.50-6.44L130.50-6.44Q130.59-8.70 131.28-12.53L131.28-12.53L132.85-20.53L132.85-20.53Q135.20-31.84 135.20-34.37L135.20-34.37L135.20-34.37Q135.20-39.41 132.24-39.41L132.24-39.41L132.24-39.41Q127.28-39.41 124.67-26.45L124.67-26.45L119.54 0L102.05 1.74L111.10-44.46L125.37-46.11L123.98-37.58L123.98-37.58Q128.06-46.11 140.59-46.11L140.59-46.11L140.59-46.11Q146.68-46.11 149.25-43.54L149.25-43.54L149.25-43.54Q151.82-40.98 151.82-35.24L151.82-35.24L151.82-35.24Q151.82-29.84 149.03-17.23L149.03-17.23L149.03-17.23Q147.73-11.57 147.73-9.44L147.73-9.44L147.73-9.44Q147.73-7.31 148.90-6.09L148.90-6.09L148.90-6.09Q150.08-4.87 151.82-4.70L151.82-4.70L151.82-4.70Q150.95-1.74 147.94 0L147.94 0L147.94 0Q144.94 1.74 141.03 1.74ZM164.95-36.37L164.95-36.37L164.95-36.37Q167.91-40.54 172.39-43.33L172.39-43.33L172.39-43.33Q176.87-46.11 182.35-46.11L182.35-46.11L182.35-46.11Q187.83-46.11 190.44-44.37L190.44-44.37L207.50-46.11L201.58-12.70L201.58-12.70Q198.53 4.35 192.10 11.05L192.10 11.05L192.10 11.05Q185.92 17.40 173.91 17.40L173.91 17.40L173.91 17.40Q164.78 17.40 159.56 14.53L159.56 14.53L159.56 14.53Q154.34 11.66 154.34 6.87L154.34 6.87L154.34 6.87Q154.34 3.31 157.04 1.26L157.04 1.26L157.04 1.26Q159.73-0.78 163.91-0.78L163.91-0.78L163.91-0.78Q167.56-0.78 170.35 0.87L170.35 0.87L170.35 0.87Q172.00 1.74 172.78 2.96L172.78 2.96L172.78 2.96Q170.78 4.70 170.78 7.57L170.78 7.57L170.78 7.57Q170.78 11.31 174.26 11.31L174.26 11.31L174.26 11.31Q180.09 11.31 183.40-2.44L183.40-2.44L183.40-2.44Q184.35-6.18 185.14-9.92L185.14-9.92L185.14-9.92Q181.22-5.13 172.35-5.13L172.35-5.13L172.35-5.13Q166.17-5.13 162.60-8.09L162.60-8.09L162.60-8.09Q159.04-11.05 159.04-18.01L159.04-18.01L159.04-18.01Q159.04-22.36 160.52-27.27L160.52-27.27L160.52-27.27Q161.99-32.19 164.95-36.37ZM176.26-17.75L176.26-17.75L176.26-17.75Q176.26-11.83 179.31-11.83L179.31-11.83L179.31-11.83Q181.40-11.83 183.40-14.09L183.40-14.09L183.40-14.09Q184.96-15.92 185.57-18.62L185.57-18.62L190.01-40.98L190.01-40.98Q189.57-41.06 189.14-41.24L189.14-41.24L189.14-41.24Q188.27-41.59 187.14-41.59L187.14-41.59L187.14-41.59Q181.83-41.59 178.70-32.89L178.70-32.89L178.70-32.89Q176.26-26.10 176.26-17.75ZM227.64 0.87L227.64 0.87L227.64 0.87Q223.50 0 221.37-0.39L221.37-0.39L221.37-0.39Q219.24-0.78 216.76-0.78L216.76-0.78L216.76-0.78Q214.28-0.78 211.85 0.09L211.85 0.09L211.85 0.09Q210.54-0.70 209.71-2.26L209.71-2.26L209.71-2.26Q208.89-3.83 208.89-6.26L208.89-6.26L208.89-6.26Q208.89-11.40 214.11-15.31L214.11-15.31L236.21-31.23L236.21-31.23Q230.03-32.97 224.42-32.97L224.42-32.97L224.42-32.97Q218.81-32.97 216.80-29.15L216.80-29.15L216.80-29.15Q213.85-32.63 213.85-38.11L213.85-38.11L213.85-38.11Q213.85-41.76 216.50-44.15L216.50-44.15L216.50-44.15Q219.15-46.55 224.72-46.55L224.72-46.55L224.72-46.55Q227.85-46.55 230.68-46.15L230.68-46.15L230.68-46.15Q233.51-45.76 236.03-45.41L236.03-45.41L240.73-44.72L240.73-44.72Q242.99-44.37 245.30-44.37L245.30-44.37L245.30-44.37Q247.60-44.37 249.34-45.33L249.34-45.33L249.34-45.33Q251.60-43.24 251.60-40.37L251.60-40.37L251.60-40.37Q251.60-35.84 246.04-31.15L246.04-31.15L224.03-14.70L224.03-14.70Q230.81-12.70 234.29-12.70L234.29-12.70L234.29-12.70Q241.60-12.70 244.73-16.18L244.73-16.18L244.73-16.18Q247.17-13.40 247.17-8.57L247.17-8.57L247.17-8.57Q247.17-3.74 244.04-1.00L244.04-1.00L244.04-1.00Q240.90 1.74 235.25 1.74L235.25 1.74L235.25 1.74Q231.77 1.74 227.64 0.87ZM258.52-2.61L258.52-2.61L258.52-2.61Q256.48-4.87 255.56-8.44L255.56-8.44L255.56-8.44Q254.65-12.01 254.65-17.84L254.65-17.84L254.65-17.84Q254.65-23.66 256.65-28.97L256.65-28.97L256.65-28.97Q258.65-34.28 262.31-38.11L262.31-38.11L262.31-38.11Q269.79-46.11 282.14-46.11L282.14-46.11L282.14-46.11Q286.58-46.11 289.80-44.63L289.80-44.63L304.67-46.11L298.24-12.18L298.24-12.18Q297.98-11.14 297.98-9.22L297.98-9.22L297.98-9.22Q297.98-7.31 299.15-6.09L299.15-6.09L299.15-6.09Q300.32-4.87 302.06-4.70L302.06-4.70L302.06-4.70Q301.19-1.74 298.02 0L298.02 0L298.02 0Q294.84 1.74 291.28 1.74L291.28 1.74L291.28 1.74Q287.71 1.74 285.32 0.39L285.32 0.39L285.32 0.39Q282.92-0.96 282.23-3.22L282.23-3.22L282.23-3.22Q280.84-1.04 277.88 0.35L277.88 0.35L277.88 0.35Q274.92 1.74 270.96 1.74L270.96 1.74L270.96 1.74Q267.00 1.74 263.78 0.70L263.78 0.70L263.78 0.70Q260.57-0.35 258.52-2.61ZM276.88-37.93L276.88-37.93L276.88-37.93Q275.88-36.37 275.01-33.71L275.01-33.71L275.01-33.71Q274.14-31.06 272.70-23.97L272.70-23.97L272.70-23.97Q271.27-16.88 271.27-11.83L271.27-11.83L271.27-11.83Q271.27-6.79 272.05-5.31L272.05-5.31L272.05-5.31Q272.83-3.83 274.22-3.83L274.22-3.83L274.22-3.83Q277.01-3.83 279.05-6.48L279.05-6.48L279.05-6.48Q281.10-9.14 281.88-13.83L281.88-13.83L286.49-39.32L286.49-39.32Q284.66-40.89 282.53-40.89L282.53-40.89L282.53-40.89Q280.40-40.89 279.14-40.19L279.14-40.19L279.14-40.19Q277.88-39.50 276.88-37.93Z" fill="url(#editing-sticker-gradient)" stroke="#000" stroke-width="2"></path></g></g><style>text {
  font-size: 64px;
  font-family: Arial Black;
  dominant-baseline: central;
  text-anchor: middle;
}</style></svg>